<svg width="25" height="26" viewBox="0 0 25 26" fill="none" xmlns="http://www.w3.org/2000/svg">
<path d="M16.6667 0.6604C14.9058 0.6604 13.2639 1.79963 12.7515 3.40164L1.38889 3.39887C0.621806 3.39887 0 4.01229 0 4.76811C0 5.52393 0.621806 6.13735 1.38889 6.13735L12.7515 6.13602C13.3739 7.81332 14.9058 8.87582 16.6667 8.87582C18.4275 8.87582 19.9751 7.8106 20.6083 6.12507L23.6111 6.13735C24.3782 6.13735 25 5.52393 25 4.76811C25 4.01229 24.3782 3.39887 23.6111 3.39887H20.5965C19.9278 1.72977 18.4275 0.6604 16.6667 0.6604ZM16.6667 3.39887C17.4337 3.39887 18.0555 4.01229 18.0555 4.76811C18.0555 5.52393 17.4337 6.13735 16.6667 6.13735C15.8996 6.13735 15.2778 5.52393 15.2778 4.76811C15.2778 4.01229 15.8996 3.39887 16.6667 3.39887ZM8.33334 8.87582C6.50279 8.87582 4.97056 9.99863 4.41112 11.617C4.21584 11.6293 1.38889 11.6143 1.38889 11.6143C0.621806 11.6143 0 12.2277 0 12.9835C0 13.7393 0.621806 14.3527 1.38889 14.3527C1.38889 14.3527 4.23945 14.324 4.41709 14.3418C4.97653 15.9602 6.50279 17.0912 8.33334 17.0912C10.0942 17.0912 11.603 16.0273 12.263 14.3568L23.6111 14.3527C24.3782 14.3527 25 13.7393 25 12.9835C25 12.2277 24.3782 11.6143 23.6111 11.6143L12.2558 11.6021C11.6471 9.96852 10.0942 8.87582 8.33334 8.87582ZM8.33334 11.6143C9.10043 11.6143 9.72223 12.2277 9.72223 12.9835C9.72223 13.7393 9.10043 14.3527 8.33334 14.3527C7.56626 14.3527 6.94445 13.7393 6.94445 12.9835C6.94445 12.2277 7.56626 11.6143 8.33334 11.6143ZM16.6667 17.0912C14.9058 17.0912 13.2951 18.2345 12.7505 19.816L1.38889 19.8297C0.621806 19.8297 0 20.4431 0 21.1989C0 21.9547 0.621806 22.5682 1.38889 22.5682L12.73 22.5695C13.3062 24.1921 14.9058 25.3066 16.6667 25.3066C18.4275 25.3066 19.9457 24.2208 20.6146 22.5695L23.6111 22.5682C24.3782 22.5682 25 21.9547 25 21.1989C25 20.4431 24.3782 19.8297 23.6111 19.8297L20.6019 19.8216C20.0024 18.2018 18.4275 17.0912 16.6667 17.0912ZM16.6667 19.8297C17.4337 19.8297 18.0555 20.4431 18.0555 21.1989C18.0555 21.9547 17.4337 22.5682 16.6667 22.5682C15.8996 22.5682 15.2778 21.9547 15.2778 21.1989C15.2778 20.4431 15.8996 19.8297 16.6667 19.8297Z" fill="#2A343D"/>
</svg>
