<svg width="30" height="30" viewBox="0 0 30 30" fill="none" xmlns="http://www.w3.org/2000/svg">
<path d="M14.0618 12.4705L11.0149 7.19314C10.7048 6.65485 10.621 6.01542 10.782 5.4154C10.9431 4.81537 11.3358 4.30384 11.8738 3.99321C12.4118 3.68257 13.0511 3.59827 13.6514 3.75881C14.2515 3.91935 14.7634 4.31161 15.0744 4.84939L19.7619 12.9684" stroke="black" stroke-width="2" stroke-linecap="round" stroke-linejoin="round"/>
<path d="M10.4709 15.6274L6.01774 7.9143C5.86354 7.64772 5.76339 7.35339 5.723 7.0481C5.68261 6.74281 5.70279 6.43255 5.78236 6.13506C5.86195 5.83758 5.99938 5.55868 6.18679 5.31433C6.3742 5.06998 6.60794 4.86495 6.87464 4.71098C7.14133 4.557 7.43575 4.45709 7.74108 4.41696C8.0464 4.37683 8.35664 4.39726 8.65406 4.47709C8.95149 4.55691 9.23026 4.69458 9.47446 4.8822C9.71865 5.06981 9.92349 5.30373 10.0772 5.57055L14.0616 12.4717" stroke="black" stroke-width="2" stroke-linecap="round" stroke-linejoin="round"/>
<path d="M18.0459 19.3721C17.4243 18.2955 17.2558 17.0161 17.5777 15.8153C17.8994 14.6144 18.6851 13.5905 19.7617 12.969L18.5898 10.9392C18.4356 10.6726 18.3354 10.3783 18.2951 10.073C18.2547 9.76772 18.2748 9.45747 18.3544 9.15997C18.4339 8.86248 18.5714 8.58359 18.7588 8.33923C18.9462 8.09488 19.1799 7.88985 19.4467 7.73588C19.7133 7.5819 20.0078 7.482 20.3131 7.44186C20.6184 7.40173 20.9287 7.42216 21.2261 7.50199C21.5236 7.58181 21.8023 7.71948 22.0464 7.9071C22.2907 8.09473 22.4956 8.32863 22.6493 8.59545L24.9931 12.655C25.6089 13.7211 26.0087 14.8983 26.1697 16.119C26.3306 17.3398 26.2494 18.5803 25.9309 19.7696C25.6123 20.9591 25.0626 22.074 24.3131 23.051C23.5636 24.0279 22.6289 24.8476 21.5626 25.4633C20.4962 26.0789 19.3191 26.4785 18.0982 26.6391C16.8774 26.7998 15.6369 26.7184 14.4477 26.3995C13.2583 26.0808 12.1434 25.5308 11.1667 24.781C10.19 24.0313 9.37046 23.0964 8.75505 22.03L4.30193 14.3169C3.99174 13.7786 3.90797 13.1393 4.06902 12.5391C4.23005 11.9392 4.62274 11.4276 5.16078 11.117C5.6988 10.8064 6.33815 10.722 6.9383 10.8826C7.53847 11.0431 8.05033 11.4354 8.36142 11.9732L10.4708 15.6268" stroke="black" stroke-width="2" stroke-linecap="round" stroke-linejoin="round"/>
<path d="M9.50323 28.1264C7.91421 27.0239 6.58964 25.5825 5.625 23.9062" stroke="black" stroke-width="2" stroke-linecap="round" stroke-linejoin="round"/>
<path d="M20.625 3.63281C21.6946 3.63268 22.7455 3.91424 23.6718 4.4492C24.598 4.98416 25.367 5.75363 25.9015 6.6802" stroke="black" stroke-width="2" stroke-linecap="round" stroke-linejoin="round"/>
</svg>
