<svg width="30" height="30" viewBox="0 0 30 30" fill="none" xmlns="http://www.w3.org/2000/svg">
<path d="M17.8119 24.3751V18.75C17.8119 18.5014 17.713 18.263 17.5373 18.0871C17.3614 17.9114 17.123 17.8125 16.8744 17.8125H13.1244C12.8756 17.8125 12.6373 17.9114 12.4614 18.0871C12.2856 18.263 12.1868 18.5014 12.1868 18.75V24.3751C12.1868 24.6238 12.0881 24.8623 11.9123 25.038C11.7365 25.2139 11.4981 25.3126 11.2494 25.3126L5.62511 25.3134C5.50199 25.3134 5.38007 25.2891 5.26631 25.2421C5.15256 25.195 5.0492 25.1259 4.96213 25.0389C4.87506 24.9518 4.806 24.8485 4.75888 24.7348C4.71175 24.621 4.6875 24.499 4.6875 24.3759V13.5408C4.6875 13.4101 4.71479 13.2809 4.76763 13.1615C4.82046 13.042 4.89768 12.9349 4.99431 12.847L14.3686 4.32345C14.5412 4.16655 14.7661 4.0796 14.9994 4.07959C15.2325 4.07959 15.4574 4.16651 15.63 4.32341L25.0056 12.847C25.1022 12.9349 25.1795 13.042 25.2324 13.1615C25.2852 13.2809 25.3125 13.4101 25.3125 13.5408V24.3759C25.3125 24.499 25.2882 24.621 25.2411 24.7348C25.194 24.8485 25.125 24.9518 25.0379 25.0389C24.9508 25.1259 24.8475 25.195 24.7336 25.2421C24.6199 25.2891 24.498 25.3134 24.3749 25.3134L18.7493 25.3126C18.5006 25.3126 18.2621 25.2139 18.0864 25.038C17.9106 24.8623 17.8118 24.6238 17.8119 24.3751Z" stroke="black" stroke-width="2" stroke-linecap="round" stroke-linejoin="round"/>
</svg>
