<svg width="25" height="21" viewBox="0 0 25 21" fill="none" xmlns="http://www.w3.org/2000/svg">
<path d="M21.25 0.584961H3.75C2.75544 0.584961 1.80161 0.974458 1.09835 1.66777C0.395088 2.36108 0 3.30141 0 4.2819V16.605C0 17.5854 0.395088 18.5258 1.09835 19.2191C1.80161 19.9124 2.75544 20.3019 3.75 20.3019H21.25C22.2445 20.3019 23.1984 19.9124 23.9016 19.2191C24.6049 18.5258 25 17.5854 25 16.605V4.2819C25 3.30141 24.6049 2.36108 23.9016 1.66777C23.1984 0.974458 22.2445 0.584961 21.25 0.584961ZM3.75 3.04958H21.25C21.5815 3.04958 21.8995 3.17942 22.1339 3.41052C22.3682 3.64162 22.5 3.95506 22.5 4.2819L12.5 10.2956L2.5 4.2819C2.5 3.95506 2.6317 3.64162 2.86611 3.41052C3.10054 3.17942 3.41847 3.04958 3.75 3.04958ZM22.5 16.605C22.5 16.9318 22.3682 17.2453 22.1339 17.4764C21.8995 17.7074 21.5815 17.8373 21.25 17.8373H3.75C3.41847 17.8373 3.10054 17.7074 2.86611 17.4764C2.6317 17.2453 2.5 16.9318 2.5 16.605V7.09156L11.85 12.7232C12.04 12.8314 12.2556 12.8884 12.475 12.8884C12.6944 12.8884 12.91 12.8314 13.1 12.7232L22.5 7.09156V16.605Z" fill="black"/>
</svg>
