<svg width="76" height="73" viewBox="0 0 76 73" fill="none" xmlns="http://www.w3.org/2000/svg">
<path d="M71.8662 24.757L44.7706 7.72792C42.7772 6.4123 40.4154 5.70804 37.9967 5.70804C35.5781 5.70804 33.2163 6.4123 31.2228 7.72792L4.12725 24.757C2.84103 25.6989 1.79915 26.9139 1.08315 28.307C0.367139 29.7 -0.00357099 31.2334 2.59267e-05 32.787V62.9309C-1.06629e-06 64.2585 0.273276 65.5729 0.80413 66.7987C1.33498 68.0244 2.11293 69.1372 3.09321 70.073C4.07349 71.0089 5.23675 71.7492 6.51604 72.2515C7.79532 72.7538 9.16539 73.0081 10.5474 72.9998H65.5116C68.2916 72.9998 70.9577 71.939 72.9234 70.0507C74.8891 68.1624 75.9934 65.6013 75.9934 62.9309V32.787C75.997 31.2334 75.6263 29.7 74.9103 28.307C74.1943 26.9139 73.1524 25.6989 71.8662 24.757Z" fill="#FFA24D"/>
<path d="M64.2012 72.9998V2.51723C64.2012 1.84962 63.9252 1.20935 63.4337 0.737281C62.9423 0.265208 62.2758 0 61.5808 0H14.4125C13.7175 0 13.0509 0.265208 12.5595 0.737281C12.0681 1.20935 11.792 1.84962 11.792 2.51723V72.9998H64.2012Z" fill="#E9E9E9"/>
<path d="M75.9934 32.787V62.9309C75.9934 65.6013 74.8891 68.1624 72.9233 70.0507C70.9576 71.939 68.2915 72.9998 65.5115 72.9998H10.5473C7.76738 72.9998 5.10128 71.939 3.13555 70.0507C1.16982 68.1624 0.0654852 65.6013 0.0654852 62.9309V32.787C0.0600683 31.1984 0.450946 29.6318 1.20539 28.2182L31.3407 53.9443C33.2337 55.4843 35.634 56.3294 38.1146 56.3294C40.5952 56.3294 42.9955 55.4843 44.8885 53.9443L75.0238 28.2182C75.7194 29.6458 76.0518 31.2118 75.9934 32.787Z" fill="#FFBE82"/>
<path d="M73.373 69.5763C72.3908 70.6504 71.1817 71.5112 69.8262 72.1015C68.4707 72.6917 66.9999 72.998 65.5116 72.9998H10.5474C9.15803 73.0009 7.78228 72.7366 6.50016 72.2224C5.21804 71.7081 4.05515 70.9541 3.0791 70.0043L31.2884 46.0905C33.141 44.5208 35.5264 43.6546 37.9968 43.6546C40.4671 43.6546 42.8525 44.5208 44.7052 46.0905L73.373 69.5763Z" fill="#FFA24D"/>
<path d="M36.5291 23.0705L32.8211 19.5086C32.0841 18.8015 31.0851 18.4043 30.0434 18.4043C29.0018 18.4043 28.0028 18.8015 27.2658 19.5086C26.5297 20.2165 26.1162 21.1762 26.1162 22.1768C26.1162 23.1774 26.5297 24.1371 27.2658 24.8451L32.8211 30.2068C33.3079 30.6749 33.8859 31.0462 34.5221 31.2996C35.1584 31.5529 35.8404 31.6834 36.5291 31.6834C37.2178 31.6834 37.8998 31.5529 38.5361 31.2996C39.1723 31.0462 39.7503 30.6749 40.237 30.2068L51.3478 19.5212C52.0839 18.8132 52.4974 17.8535 52.4974 16.8529C52.4974 15.8523 52.0839 14.8926 51.3478 14.1846C50.6108 13.4775 49.6118 13.0804 48.5701 13.0804C47.5285 13.0804 46.5294 13.4775 45.7924 14.1846L36.5291 23.0705Z" fill="#00CC83"/>
</svg>
