<svg width="66" height="81" viewBox="0 0 66 81" fill="none" xmlns="http://www.w3.org/2000/svg">
<path d="M50.7692 81H5.41541C2.4245 81 0 78.6414 0 75.7317V36.8781C0 33.9685 2.4245 31.6098 5.41541 31.6098H45.3538C48.3447 31.6098 50.7692 33.9685 50.7692 36.8781V81Z" fill="#1849D6"/>
<g opacity="0.2">
<path opacity="0.4" d="M45.3538 31.6098H38.5846C41.5755 31.6098 44 33.9685 44 36.8781V44.582C44 46.0882 43.1206 47.4652 41.7297 48.1268C34.8632 51.3934 30.1232 58.2598 30.1232 66.1829C30.1232 72.0432 32.7168 77.325 36.8456 81H50.7692V36.8781C50.7692 33.9685 48.3447 31.6098 45.3538 31.6098Z" fill="#E8EDFB"/>
</g>
<path d="M7.64209 17.2608V31.6098H14.7497V17.2608C14.7497 11.5468 19.5111 6.91474 25.3846 6.91474C31.2581 6.91474 36.0194 11.5468 36.0194 17.2608V31.6098H43.1271V17.2608C43.1272 7.72791 35.1837 0 25.3848 0C15.5858 0 7.64209 7.72791 7.64209 17.2608Z" fill="#E9E9E9"/>
<g opacity="0.3">
<path d="M7.64209 26.3414H14.7497V31.6098H7.64209V26.3414Z" fill="#A5A5A5"/>
</g>
<g opacity="0.3">
<path d="M36.0195 26.3414H43.1272V31.6098H36.0195V26.3414Z" fill="#A5A5A5"/>
</g>
<path d="M50.7692 81C59.1809 81 66 74.3662 66 66.1829C66 57.9996 59.1809 51.3657 50.7692 51.3657C42.3574 51.3657 35.5383 57.9996 35.5383 66.1829C35.5383 74.3662 42.3574 81 50.7692 81Z" fill="#FF7272"/>
<path opacity="0.2" d="M58.7278 53.548C60.1501 55.8013 60.9708 58.4524 60.9708 61.2904C60.9708 69.4736 54.1518 76.1076 45.74 76.1076C42.8228 76.1076 40.0976 75.3091 37.7814 73.9255C40.4604 78.1693 45.2747 81 50.7692 81C59.1809 81 66 74.3662 66 66.1829C66 60.8377 63.0901 56.1541 58.7278 53.548Z" fill="#FF3636"/>
<path d="M30.8001 50.6269C30.8001 47.7172 28.3756 45.3586 25.3847 45.3586C22.3937 45.3586 19.9692 47.7172 19.9692 50.6269C19.9692 52.5766 21.0588 54.2776 22.6769 55.1887V64.6171C22.6769 66.072 23.8892 67.2512 25.3845 67.2512C26.8799 67.2512 28.0921 66.0718 28.0921 64.6171V55.1887C29.7105 54.2776 30.8001 52.5766 30.8001 50.6269Z" fill="white"/>
<path d="M50.7692 72.0337C50.0955 72.0337 49.5496 71.5024 49.5496 70.8472V67.0044C49.5496 66.3491 50.0955 65.8179 50.7692 65.8179C51.925 65.8179 53.0005 65.3681 53.7975 64.5515C54.5941 63.7353 54.9998 62.6649 54.9395 61.5374C54.8269 59.4244 53.0331 57.7359 50.8559 57.6932C48.7457 57.654 46.9247 59.1537 46.6332 61.187C46.6065 61.373 46.593 61.5643 46.593 61.7551C46.593 62.4103 46.0471 62.9416 45.3733 62.9416C44.6996 62.9416 44.1537 62.4103 44.1537 61.7551C44.1537 61.455 44.1752 61.1534 44.2174 60.859C44.6799 57.6358 47.5549 55.2583 50.9052 55.3206C54.3548 55.3882 57.197 58.065 57.3757 61.4145C57.4708 63.1982 56.8283 64.8925 55.5665 66.1854C54.5898 67.1862 53.3489 67.8389 51.9889 68.0832V70.8473C51.9889 71.5024 51.4428 72.0337 50.7692 72.0337Z" fill="white"/>
<path d="M50.7696 77.0465C51.4432 77.0465 51.9892 76.5153 51.9892 75.86C51.9892 75.2047 51.4432 74.6735 50.7696 74.6735C50.096 74.6735 49.5499 75.2047 49.5499 75.86C49.5499 76.5153 50.096 77.0465 50.7696 77.0465Z" fill="white"/>
</svg>
