<svg width="21" height="18" viewBox="0 0 21 18" fill="none" xmlns="http://www.w3.org/2000/svg">
<path d="M10.0833 3.25417C13.5575 3.25417 16.6558 5.20667 18.1683 8.29583C17.6275 9.41417 16.8667 10.3767 15.9592 11.1558L17.2517 12.4483C18.5258 11.3208 19.5342 9.90917 20.1667 8.29583C18.5808 4.27167 14.6667 1.42083 10.0833 1.42083C8.91917 1.42083 7.80083 1.60417 6.74667 1.94333L8.25917 3.45583C8.855 3.33667 9.46 3.25417 10.0833 3.25417ZM9.1025 4.29917L11 6.19667C11.5225 6.42583 11.9442 6.8475 12.1733 7.37L14.0708 9.2675C14.1442 8.95583 14.1992 8.62583 14.1992 8.28667C14.2083 6.01333 12.3567 4.17083 10.0833 4.17083C9.74417 4.17083 9.42333 4.21667 9.1025 4.29917ZM0.925833 1.30167L3.3825 3.75833C1.88833 4.93167 0.705833 6.49 0 8.29583C1.58583 12.32 5.5 15.1708 10.0833 15.1708C11.4767 15.1708 12.815 14.905 14.0433 14.4192L17.1783 17.5542L18.4708 16.2617L2.21833 0L0.925833 1.30167ZM7.80083 8.17667L10.1933 10.5692C10.1567 10.5783 10.12 10.5875 10.0833 10.5875C8.81833 10.5875 7.79167 9.56083 7.79167 8.29583C7.79167 8.25 7.80083 8.2225 7.80083 8.17667ZM4.68417 5.06L6.28833 6.66417C6.0775 7.16833 5.95833 7.71833 5.95833 8.29583C5.95833 10.5692 7.81 12.4208 10.0833 12.4208C10.6608 12.4208 11.2108 12.3017 11.7058 12.0908L12.6042 12.9892C11.7975 13.2092 10.9542 13.3375 10.0833 13.3375C6.60917 13.3375 3.51083 11.385 1.99833 8.29583C2.64 6.985 3.575 5.90333 4.68417 5.06Z" fill="#181818" fill-opacity="0.3"/>
</svg>
