<svg width="25" height="26" viewBox="0 0 25 26" fill="none" xmlns="http://www.w3.org/2000/svg">
<path d="M12.5006 17.3655C13.4423 17.3655 14.363 17.1027 15.1461 16.6103C15.9292 16.118 16.5396 15.418 16.8999 14.5992C17.2604 13.7804 17.3547 12.8795 17.1708 12.0101C16.9872 11.1409 16.5336 10.3424 15.8677 9.71575C15.2017 9.08905 14.3533 8.66227 13.4296 8.48937C12.5058 8.31646 11.5485 8.4052 10.6784 8.74436C9.8082 9.08353 9.06452 9.65789 8.54128 10.3948C8.01805 11.1317 7.73877 11.9981 7.73877 12.8844C7.73877 14.0729 8.24046 15.2127 9.13347 16.053C10.0265 16.8934 11.2376 17.3655 12.5006 17.3655ZM12.5006 10.6438C12.9715 10.6438 13.4318 10.7752 13.8233 11.0215C14.2148 11.2676 14.5201 11.6176 14.7003 12.0269C14.8804 12.4364 14.9276 12.8869 14.8358 13.3215C14.7439 13.7561 14.5171 14.1554 14.1841 14.4687C13.8512 14.782 13.4269 14.9955 12.9651 15.0819C12.5032 15.1683 12.0245 15.124 11.5894 14.9545C11.1544 14.7848 10.7825 14.4976 10.521 14.1291C10.2593 13.7607 10.1197 13.3276 10.1197 12.8844C10.1197 12.2902 10.3705 11.7203 10.817 11.3001C11.2636 10.8799 11.8692 10.6438 12.5006 10.6438ZM2.38172 13.8669L1.19127 14.5155C0.920407 14.6625 0.682983 14.8583 0.492534 15.0917C0.302085 15.3252 0.162362 15.5916 0.0813276 15.8758C0.000293397 16.16 -0.0204443 16.4564 0.0202811 16.7481C0.0609946 17.0399 0.162397 17.3213 0.318668 17.5761L2.09125 20.4642C2.24739 20.7195 2.4555 20.9434 2.70365 21.1228C2.9518 21.3024 3.23513 21.4341 3.53742 21.5105C3.83972 21.5869 4.15506 21.6064 4.46539 21.5679C4.77572 21.5295 5.07495 21.4338 5.34595 21.2865L6.54831 20.6323C6.73181 20.5348 6.93938 20.4846 7.15006 20.4867C7.36075 20.489 7.5671 20.5434 7.74829 20.6446C7.92723 20.7421 8.07583 20.8821 8.17924 21.0506C8.28266 21.2191 8.33725 21.4101 8.33756 21.6047V22.9669C8.33756 23.5611 8.5884 24.131 9.03492 24.5512C9.48142 24.9715 10.087 25.2075 10.7185 25.2075H14.2898C14.9212 25.2075 15.5268 24.9715 15.9734 24.5512C16.4199 24.131 16.6707 23.5611 16.6707 22.9669V21.6024C16.674 21.4069 16.7309 21.2156 16.8361 21.047C16.9414 20.8785 17.0913 20.7385 17.2712 20.6408C17.4511 20.543 17.6549 20.4909 17.8626 20.4893C18.0704 20.4879 18.275 20.5372 18.4564 20.6323L19.6576 21.2843C20.2045 21.5814 20.8544 21.6619 21.4642 21.5081C22.0741 21.3543 22.5942 20.9788 22.9099 20.4642L24.6813 17.5761C24.8376 17.3213 24.939 17.0399 24.9797 16.7481C25.0205 16.4564 24.9996 16.16 24.9187 15.8758C24.8376 15.5916 24.6979 15.3252 24.5075 15.0917C24.317 14.8583 24.0795 14.6625 23.8087 14.5155L22.6182 13.8669C22.4336 13.7657 22.2811 13.6199 22.1765 13.4446C22.0718 13.2693 22.0189 13.0708 22.023 12.8698C22.0235 12.6736 22.0786 12.4809 22.1831 12.3109C22.2875 12.1411 22.4377 12 22.6182 11.9019L23.8087 11.2533C24.0795 11.1063 24.317 10.9105 24.5075 10.6771C24.6979 10.4437 24.8376 10.1773 24.9187 9.89303C24.9996 9.60883 25.0205 9.31238 24.9797 9.02063C24.939 8.72887 24.8376 8.44752 24.6813 8.19265L22.9075 5.30456C22.7513 5.04957 22.5434 4.82602 22.2954 4.64669C22.0474 4.46736 21.7645 4.33576 21.4624 4.2594C21.1604 4.18303 20.8453 4.16341 20.5352 4.20166C20.2252 4.2399 19.9262 4.33526 19.6552 4.48227L18.4528 5.1354C18.2713 5.23093 18.0665 5.28045 17.8586 5.27907C17.6506 5.27769 17.4466 5.22547 17.2666 5.12753C17.0864 5.0296 16.9366 4.88929 16.8315 4.7204C16.7265 4.5515 16.6698 4.35981 16.6672 4.16411V2.80185C16.6672 2.20761 16.4163 1.63771 15.9698 1.21753C15.5233 0.797334 14.9177 0.561279 14.2863 0.561279H10.7149C10.0834 0.561279 9.47785 0.797334 9.03135 1.21753C8.58484 1.63771 8.33399 2.20761 8.33399 2.80185V4.25149C8.33396 4.41962 8.28685 4.58478 8.1974 4.73031C8.10795 4.87585 7.97932 4.99664 7.82448 5.0805L7.64115 5.18021C7.48621 5.2631 7.31105 5.30667 7.13282 5.30667C6.9546 5.30667 6.77944 5.2631 6.6245 5.18021L5.34595 4.48227C5.07514 4.33499 4.77613 4.23936 4.46602 4.20087C4.15592 4.16236 3.84079 4.18174 3.53864 4.2579C3.23651 4.33406 2.95326 4.46549 2.70512 4.6447C2.45697 4.8239 2.24879 5.04736 2.09244 5.30232L0.321049 8.19377C0.00561472 8.70815 -0.0799074 9.31933 0.0832681 9.89301C0.246444 10.4667 0.644972 10.9559 1.19127 11.2533L2.38172 11.9008C2.5662 12.0024 2.71858 12.1485 2.82319 12.3239C2.9278 12.4994 2.98088 12.6979 2.97695 12.899C2.97726 13.0953 2.92236 13.2884 2.81782 13.4583C2.71329 13.6284 2.56283 13.7693 2.38172 13.8669ZM3.57218 9.96045L2.38172 9.31293L4.1555 6.42484L5.43405 7.11942C5.95022 7.39856 6.53512 7.54545 7.13044 7.54545C7.72577 7.54545 8.31068 7.39856 8.82684 7.11942L9.01017 7.02083C9.52711 6.7401 9.95665 6.33655 10.2559 5.85055C10.555 5.36455 10.7132 4.81315 10.7149 4.25149V2.80185H14.2863V4.16411C14.2888 4.75319 14.4553 5.33137 14.7692 5.84099C15.0833 6.35062 15.5336 6.7739 16.0756 7.0686C16.6176 7.3633 17.2324 7.51916 17.8583 7.5206C18.4843 7.52205 19.0997 7.36904 19.6433 7.07685L20.8421 6.42484L22.6194 9.31293L21.429 9.96045C20.887 10.2592 20.4373 10.6862 20.125 11.199C19.8126 11.7119 19.6482 12.2927 19.6482 12.8838C19.6482 13.475 19.8126 14.0558 20.125 14.5686C20.4373 15.0815 20.887 15.5085 21.429 15.8072L22.6194 16.4559L20.848 19.3439L19.6433 18.6919C19.0997 18.3998 18.4843 18.2467 17.8583 18.2482C17.2324 18.2497 16.6176 18.4055 16.0756 18.7002C15.5336 18.9949 15.0833 19.4181 14.7692 19.9278C14.4553 20.4375 14.2888 21.0156 14.2863 21.6047V22.9669H10.7149V21.6047C10.7131 21.0153 10.547 20.4368 10.2332 19.9267C9.91946 19.4167 9.46891 18.9931 8.92666 18.6983C8.3844 18.4035 7.76942 18.2476 7.14316 18.2465C6.5169 18.2455 5.9013 18.399 5.35786 18.6919L4.15907 19.3439L2.38172 16.4559L3.57218 15.8072C4.11424 15.5085 4.5638 15.0815 4.87621 14.5686C5.18861 14.0558 5.35298 13.475 5.35298 12.8838C5.35298 12.2927 5.18861 11.7119 4.87621 11.199C4.5638 10.6862 4.11424 10.2592 3.57218 9.96045Z" fill="black"/>
</svg>
